<svg xmlns="http://www.w3.org/2000/svg" viewBox="0 0 1024 1024" width="1024" height="1024" role="img" aria-label="JK3DA PDF Studio">
  <defs>
    <linearGradient id="bg_e" x1="0" y1="0" x2="1024" y2="1024" gradientUnits="userSpaceOnUse"><stop offset="0" stop-color="#3b82f6"></stop><stop offset="1" stop-color="#2f6fe0"></stop></linearGradient>
    <linearGradient id="gloss_e" x1="512" y1="0" x2="512" y2="1024" gradientUnits="userSpaceOnUse"><stop offset="0" stop-color="#fff" stop-opacity="0.16"></stop><stop offset="0.5" stop-color="#fff" stop-opacity="0"></stop></linearGradient>
    <radialGradient id="paper_e" cx="512" cy="512" r="330" gradientUnits="userSpaceOnUse"><stop offset="0" stop-color="#2a548f"></stop><stop offset="0.4" stop-color="#7ba2e2"></stop><stop offset="0.75" stop-color="#dde8fa"></stop><stop offset="1" stop-color="#ffffff"></stop></radialGradient>
    <clipPath id="tile_e"><rect width="1024" height="1024" rx="184"></rect></clipPath>
    <filter id="ds_e" x="-30%" y="-30%" width="160%" height="160%"><feDropShadow dx="0" dy="12" stdDeviation="16" flood-color="#04102b" flood-opacity="0.42"></feDropShadow></filter>
    <filter id="dst_e" x="-30%" y="-30%" width="160%" height="160%"><feDropShadow dx="0" dy="6" stdDeviation="9" flood-color="#04102b" flood-opacity="0.35"></feDropShadow></filter>
  </defs>
  <g clip-path="url(#tile_e)">
    <rect width="1024" height="1024" fill="url(#bg_e)"></rect><rect width="1024" height="1024" fill="url(#gloss_e)"></rect>
    <circle cx="512" cy="512" r="384" fill="none" stroke="#12305f" stroke-width="20" stroke-opacity="0.5" stroke-dasharray="1200 260 720 2000" stroke-linecap="round" transform="rotate(20 512 512)"></circle>
    <g filter="url(#dst_e)"><path d="M 347.3 354.5 L 355.1 349.7 L 361.8 345.7 L 368.6 342.0 L 375.5 338.5 L 382.5 335.3 L 389.5 332.3 L 396.5 329.6 L 403.6 327.2 L 410.7 325.0 L 417.8 323.1 L 424.9 321.4 L 432.0 319.9 L 439.1 318.7 L 446.2 317.8 L 453.3 317.1 L 460.3 316.6 L 467.3 316.3 L 474.3 316.3 L 481.2 316.6 L 488.0 317.0 L 494.8 317.7 L 501.5 318.6 L 508.2 319.7 L 514.7 321.0 L 521.1 322.5 L 527.5 324.3 L 533.7 326.2 L 539.9 328.3 L 545.9 330.6 L 551.8 333.1 L 557.6 335.8 L 563.2 338.6 L 568.7 341.6 L 574.1 344.7 L 579.4 348.1 L 584.4 351.5 L 589.4 355.1 L 594.2 358.9 L 598.8 362.8 L 603.3 366.8 L 607.6 370.9 L 611.7 375.1 L 615.7 379.5 L 619.5 383.9 L 623.1 388.5 L 626.5 393.1 L 629.8 397.8 L 632.9 402.6 L 635.8 407.5 L 638.6 412.4 L 641.1 417.4 L 643.5 422.4 L 645.7 427.5 L 647.7 432.6 L 649.6 437.8 L 651.2 443.0 L 652.7 448.2 L 654.0 453.4 L 655.1 458.6 L 656.0 463.9 L 656.8 469.1 L 657.3 474.3 L 657.7 479.5 L 657.9 484.7 L 658.0 489.9 L 657.9 495.1 L 657.6 500.2 L 657.1 505.2 L 656.5 510.3 L 655.7 515.2 L 654.7 520.2 L 653.6 525.0 L 652.4 529.8 L 651.0 534.6 L 649.4 539.2 L 647.7 543.8 L 645.9 548.3 L 643.9 552.7 L 641.7 557.0 L 639.5 561.3 L 637.1 565.4 L 634.6 569.4 L 632.0 573.4 L 629.2 577.2 L 626.3 580.9 L 623.4 584.5 L 620.3 588.0 L 617.1 591.3 L 613.9 594.6 L 610.2 597.9 L 633.3 630.6 L 638.2 627.9 L 643.3 624.7 L 648.4 621.4 L 653.4 617.9 L 658.3 614.1 L 663.2 610.1 L 667.9 606.0 L 672.6 601.6 L 677.1 597.0 L 681.5 592.2 L 685.8 587.2 L 690.0 582.1 L 694.0 576.7 L 697.8 571.1 L 701.5 565.4 L 705.1 559.4 L 708.4 553.3 L 711.6 547.1 L 714.6 540.6 L 717.3 534.0 L 719.9 527.3 L 722.3 520.3 L 724.4 513.3 L 726.3 506.1 L 728.0 498.8 L 729.4 491.3 L 730.6 483.8 L 731.5 476.1 L 732.2 468.4 L 732.6 460.5 L 732.7 452.6 L 732.6 444.6 L 732.2 436.6 L 731.5 428.4 L 730.5 420.3 L 729.2 412.1 L 727.6 403.9 L 725.7 395.7 L 723.5 387.5 L 721.1 379.2 L 718.3 371.0 L 715.2 362.9 L 711.8 354.8 L 708.0 346.7 L 704.0 338.7 L 699.7 330.7 L 695.0 322.9 L 690.1 315.2 L 684.8 307.5 L 679.2 300.0 L 673.3 292.6 L 667.1 285.4 L 660.7 278.3 L 653.9 271.4 L 646.8 264.7 L 639.4 258.2 L 631.8 251.9 L 623.9 245.8 L 615.7 239.9 L 607.2 234.2 L 598.5 228.8 L 589.5 223.7 L 580.3 218.8 L 570.8 214.3 L 561.1 210.0 L 551.2 206.0 L 541.1 202.3 L 530.8 199.0 L 520.2 196.0 L 509.5 193.3 L 498.6 191.0 L 487.6 189.0 L 476.4 187.4 L 465.1 186.2 L 453.6 185.4 L 442.0 184.9 L 430.4 184.9 L 418.6 185.3 L 406.8 186.0 L 394.9 187.2 L 382.9 188.8 L 371.0 190.8 L 359.0 193.3 L 347.0 196.2 L 335.0 199.5 L 323.0 203.2 L 311.1 207.4 L 299.2 212.1 L 287.5 217.2 L 276.9 222.1 Z" fill="url(#paper_e)"></path><path d="M 676.7 669.5 L 668.9 674.3 L 662.2 678.3 L 655.4 682.0 L 648.5 685.5 L 641.5 688.7 L 634.5 691.7 L 627.5 694.4 L 620.4 696.8 L 613.3 699.0 L 606.2 700.9 L 599.1 702.6 L 592.0 704.1 L 584.9 705.3 L 577.8 706.2 L 570.7 706.9 L 563.7 707.4 L 556.7 707.7 L 549.7 707.7 L 542.8 707.4 L 536.0 707.0 L 529.2 706.3 L 522.5 705.4 L 515.8 704.3 L 509.3 703.0 L 502.9 701.5 L 496.5 699.7 L 490.3 697.8 L 484.1 695.7 L 478.1 693.4 L 472.2 690.9 L 466.4 688.2 L 460.8 685.4 L 455.3 682.4 L 449.9 679.3 L 444.6 675.9 L 439.6 672.5 L 434.6 668.9 L 429.8 665.1 L 425.2 661.2 L 420.7 657.2 L 416.4 653.1 L 412.3 648.9 L 408.3 644.5 L 404.5 640.1 L 400.9 635.5 L 397.5 630.9 L 394.2 626.2 L 391.1 621.4 L 388.2 616.5 L 385.4 611.6 L 382.9 606.6 L 380.5 601.6 L 378.3 596.5 L 376.3 591.4 L 374.4 586.2 L 372.8 581.0 L 371.3 575.8 L 370.0 570.6 L 368.9 565.4 L 368.0 560.1 L 367.2 554.9 L 366.7 549.7 L 366.3 544.5 L 366.1 539.3 L 366.0 534.1 L 366.1 528.9 L 366.4 523.8 L 366.9 518.8 L 367.5 513.7 L 368.3 508.8 L 369.3 503.8 L 370.4 499.0 L 371.6 494.2 L 373.0 489.4 L 374.6 484.8 L 376.3 480.2 L 378.1 475.7 L 380.1 471.3 L 382.3 467.0 L 384.5 462.7 L 386.9 458.6 L 389.4 454.6 L 392.0 450.6 L 394.8 446.8 L 397.7 443.1 L 400.6 439.5 L 403.7 436.0 L 406.9 432.7 L 410.1 429.4 L 413.8 426.1 L 390.7 393.4 L 385.8 396.1 L 380.7 399.3 L 375.6 402.6 L 370.6 406.1 L 365.7 409.9 L 360.8 413.9 L 356.1 418.0 L 351.4 422.4 L 346.9 427.0 L 342.5 431.8 L 338.2 436.8 L 334.0 441.9 L 330.0 447.3 L 326.2 452.9 L 322.5 458.6 L 318.9 464.6 L 315.6 470.7 L 312.4 476.9 L 309.4 483.4 L 306.7 490.0 L 304.1 496.7 L 301.7 503.7 L 299.6 510.7 L 297.7 517.9 L 296.0 525.2 L 294.6 532.7 L 293.4 540.2 L 292.5 547.9 L 291.8 555.6 L 291.4 563.5 L 291.3 571.4 L 291.4 579.4 L 291.8 587.4 L 292.5 595.6 L 293.5 603.7 L 294.8 611.9 L 296.4 620.1 L 298.3 628.3 L 300.5 636.5 L 302.9 644.8 L 305.7 653.0 L 308.8 661.1 L 312.2 669.2 L 316.0 677.3 L 320.0 685.3 L 324.3 693.3 L 329.0 701.1 L 333.9 708.8 L 339.2 716.5 L 344.8 724.0 L 350.7 731.4 L 356.9 738.6 L 363.3 745.7 L 370.1 752.6 L 377.2 759.3 L 384.6 765.8 L 392.2 772.1 L 400.1 778.2 L 408.3 784.1 L 416.8 789.8 L 425.5 795.2 L 434.5 800.3 L 443.7 805.2 L 453.2 809.7 L 462.9 814.0 L 472.8 818.0 L 482.9 821.7 L 493.2 825.0 L 503.8 828.0 L 514.5 830.7 L 525.4 833.0 L 536.4 835.0 L 547.6 836.6 L 558.9 837.8 L 570.4 838.6 L 582.0 839.1 L 593.6 839.1 L 605.4 838.7 L 617.2 838.0 L 629.1 836.8 L 641.1 835.2 L 653.0 833.2 L 665.0 830.7 L 677.0 827.8 L 689.0 824.5 L 701.0 820.8 L 712.9 816.6 L 724.8 811.9 L 736.5 806.8 L 747.1 801.9 Z" fill="url(#paper_e)"></path></g>
    <path d="M 347.3 354.5 L 355.1 349.7 L 361.8 345.7 L 368.6 342.0 L 375.5 338.5 L 382.5 335.3 L 389.5 332.3 L 396.5 329.6 L 403.6 327.2 L 410.7 325.0 L 417.8 323.1 L 424.9 321.4 L 432.0 319.9 L 439.1 318.7 L 446.2 317.8 L 453.3 317.1 L 460.3 316.6 L 467.3 316.3 L 474.3 316.3 L 481.2 316.6 L 488.0 317.0 L 494.8 317.7 L 501.5 318.6 L 508.2 319.7 L 514.7 321.0 L 521.1 322.5 L 527.5 324.3 L 533.7 326.2 L 539.9 328.3 L 545.9 330.6 L 551.8 333.1 L 557.6 335.8 L 563.2 338.6 L 568.7 341.6 L 574.1 344.7 L 579.4 348.1 L 584.4 351.5 L 589.4 355.1 L 594.2 358.9 L 598.8 362.8 L 603.3 366.8 L 607.6 370.9 L 611.7 375.1 L 615.7 379.5 L 619.5 383.9 L 623.1 388.5 L 626.5 393.1 L 629.8 397.8 L 632.9 402.6 L 635.8 407.5 L 638.6 412.4 L 641.1 417.4 L 643.5 422.4 L 645.7 427.5 L 647.7 432.6 L 649.6 437.8 L 651.2 443.0 L 652.7 448.2 L 654.0 453.4 L 655.1 458.6 L 656.0 463.9 L 656.8 469.1 L 657.3 474.3 L 657.7 479.5 L 657.9 484.7 L 658.0 489.9 L 657.9 495.1 L 657.6 500.2 L 657.1 505.2 L 656.5 510.3 L 655.7 515.2 L 654.7 520.2 L 653.6 525.0 L 652.4 529.8 L 651.0 534.6 L 649.4 539.2 L 647.7 543.8 L 645.9 548.3 L 643.9 552.7 L 641.7 557.0 L 639.5 561.3 L 637.1 565.4 L 634.6 569.4 L 632.0 573.4 L 629.2 577.2 L 626.3 580.9 L 623.4 584.5 L 620.3 588.0 L 617.1 591.3 L 613.9 594.6 L 610.2 597.9 " fill="none" stroke="#ff4d18" stroke-width="9" stroke-linecap="round" stroke-opacity="0.8"></path>
    <path d="M 676.7 669.5 L 668.9 674.3 L 662.2 678.3 L 655.4 682.0 L 648.5 685.5 L 641.5 688.7 L 634.5 691.7 L 627.5 694.4 L 620.4 696.8 L 613.3 699.0 L 606.2 700.9 L 599.1 702.6 L 592.0 704.1 L 584.9 705.3 L 577.8 706.2 L 570.7 706.9 L 563.7 707.4 L 556.7 707.7 L 549.7 707.7 L 542.8 707.4 L 536.0 707.0 L 529.2 706.3 L 522.5 705.4 L 515.8 704.3 L 509.3 703.0 L 502.9 701.5 L 496.5 699.7 L 490.3 697.8 L 484.1 695.7 L 478.1 693.4 L 472.2 690.9 L 466.4 688.2 L 460.8 685.4 L 455.3 682.4 L 449.9 679.3 L 444.6 675.9 L 439.6 672.5 L 434.6 668.9 L 429.8 665.1 L 425.2 661.2 L 420.7 657.2 L 416.4 653.1 L 412.3 648.9 L 408.3 644.5 L 404.5 640.1 L 400.9 635.5 L 397.5 630.9 L 394.2 626.2 L 391.1 621.4 L 388.2 616.5 L 385.4 611.6 L 382.9 606.6 L 380.5 601.6 L 378.3 596.5 L 376.3 591.4 L 374.4 586.2 L 372.8 581.0 L 371.3 575.8 L 370.0 570.6 L 368.9 565.4 L 368.0 560.1 L 367.2 554.9 L 366.7 549.7 L 366.3 544.5 L 366.1 539.3 L 366.0 534.1 L 366.1 528.9 L 366.4 523.8 L 366.9 518.8 L 367.5 513.7 L 368.3 508.8 L 369.3 503.8 L 370.4 499.0 L 371.6 494.2 L 373.0 489.4 L 374.6 484.8 L 376.3 480.2 L 378.1 475.7 L 380.1 471.3 L 382.3 467.0 L 384.5 462.7 L 386.9 458.6 L 389.4 454.6 L 392.0 450.6 L 394.8 446.8 L 397.7 443.1 L 400.6 439.5 L 403.7 436.0 L 406.9 432.7 L 410.1 429.4 L 413.8 426.1 " fill="none" stroke="#38bdf8" stroke-width="9" stroke-linecap="round" stroke-opacity="0.75"></path>
    <g filter="url(#ds_e)"><g transform="translate(314.78229770117207,291.2712571956908) rotate(-13)"><g transform="translate(28,-32) rotate(9)"><path d="M -96 -150 H 96 A 20 20 0 0 1 116 -130 V 130 A 20 20 0 0 1 96 150 H -96 A 20 20 0 0 1 -116 130 V -130 A 20 20 0 0 1 -96 -150 Z" fill="url(#paper_e)" stroke="#7ea6e8" stroke-opacity="0.5" stroke-width="2"></path></g><g transform="translate(15,-15) rotate(4.5)"><path d="M -96 -150 H 96 A 20 20 0 0 1 116 -130 V 130 A 20 20 0 0 1 96 150 H -96 A 20 20 0 0 1 -116 130 V -130 A 20 20 0 0 1 -96 -150 Z" fill="url(#paper_e)" stroke="#7ea6e8" stroke-opacity="0.5" stroke-width="2"></path></g><path d="M -96 -150 H 96 A 20 20 0 0 1 116 -130 V 130 A 20 20 0 0 1 96 150 H -96 A 20 20 0 0 1 -116 130 V -130 A 20 20 0 0 1 -96 -150 Z" fill="url(#paper_e)" stroke="#9dbef2" stroke-opacity="0.5" stroke-width="2"></path><path d="M -96 -150 H 96" stroke="#ff4d18" stroke-width="14" stroke-linecap="round"></path><g transform="translate(0,24) scale(0.412)"><g transform="translate(-186,-75)" fill="#143a80">
  <path fill-rule="evenodd" d="M0 0 H60 A45 45 0 0 1 60 90 H34 V150 H0 Z M34 30 H56 A19 19 0 0 1 56 60 H34 Z"></path>
  <path fill-rule="evenodd" transform="translate(133,0)" d="M0 0 H50 A75 75 0 0 1 50 150 H0 Z M34 30 H50 A45 45 0 0 1 50 120 H34 Z"></path>
  <path transform="translate(286,0)" d="M0 0 H86 V30 H34 V62 H74 V92 H34 V150 H0 Z"></path></g></g></g><g transform="translate(709.2177022988279,732.7287428043091) rotate(167)"><g transform="translate(28,-32) rotate(9)"><path d="M -96 -150 H 96 A 20 20 0 0 1 116 -130 V 130 A 20 20 0 0 1 96 150 H -96 A 20 20 0 0 1 -116 130 V -130 A 20 20 0 0 1 -96 -150 Z" fill="url(#paper_e)" stroke="#7ea6e8" stroke-opacity="0.5" stroke-width="2"></path></g><g transform="translate(15,-15) rotate(4.5)"><path d="M -96 -150 H 96 A 20 20 0 0 1 116 -130 V 130 A 20 20 0 0 1 96 150 H -96 A 20 20 0 0 1 -116 130 V -130 A 20 20 0 0 1 -96 -150 Z" fill="url(#paper_e)" stroke="#7ea6e8" stroke-opacity="0.5" stroke-width="2"></path></g><path d="M -96 -150 H 96 A 20 20 0 0 1 116 -130 V 130 A 20 20 0 0 1 96 150 H -96 A 20 20 0 0 1 -116 130 V -130 A 20 20 0 0 1 -96 -150 Z" fill="url(#paper_e)" stroke="#9dbef2" stroke-opacity="0.5" stroke-width="2"></path><path d="M -96 -150 H 96" stroke="#38bdf8" stroke-width="14" stroke-linecap="round"></path></g></g>

    <rect x="3" y="3" width="1018" height="1018" rx="181" fill="none" stroke="#fff" stroke-opacity="0.18" stroke-width="6"></rect>
  </g>
</svg>
